<?xml version="1.0" encoding="UTF-8"?>
<svg width="10px" height="6px" viewBox="0 0 10 6" version="1.1" xmlns="http://www.w3.org/2000/svg" xmlns:xlink="http://www.w3.org/1999/xlink">
    <!-- Generator: Sketch 58 (84663) - https://sketch.com -->
    <title>下拉</title>
    <desc>Created with Sketch.</desc>
    <g id="页面-1" stroke="none" stroke-width="1" fill="none" fill-rule="evenodd">
        <g id="采集点配置" transform="translate(-150.000000, -77.000000)" fill="#FFFFFF" fill-rule="nonzero">
            <g id="左侧">
                <g id="1">
                    <g transform="translate(0.000000, 54.000000)">
                        <g id="下拉" transform="translate(150.000000, 23.000000)">
                            <path d="M9.81005974,0.209148493 C9.6770817,0.0752811198 9.49619017,0 9.30750092,0 C9.11881167,0 8.93792014,0.0752811198 8.8049421,0.209148493 L4.97592252,4.03816807 L1.14690294,0.209148493 C0.87608869,-0.0390648068 0.460462288,-0.0390648068 0.189648041,0.209148493 C-0.0632160138,0.478136903 -0.0632160138,0.897414978 0.189648041,1.16640339 L4.50686762,5.48362297 C4.61549616,5.62092457 4.7735478,5.71025811 4.94720487,5.73251715 C5.13776221,5.73340899 5.32064544,5.65749519 5.45454996,5.52191316 L9.77176954,1.20469358 C9.91024434,1.07856002 9.99228423,0.902114277 9.99948313,0.714942903 C10.006682,0.52777153 9.9384372,0.34554561 9.81005974,0.209148493 L9.81005974,0.209148493 Z" id="Shape" transform="translate(5.000000, 2.866259) scale(1, -1) translate(-5.000000, -2.866259) "></path>
                        </g>
                    </g>
                </g>
            </g>
        </g>
    </g>
</svg>