<?xml version="1.0" standalone="no"?><!DOCTYPE svg PUBLIC "-//W3C//DTD SVG 1.1//EN" "http://www.w3.org/Graphics/SVG/1.1/DTD/svg11.dtd"><svg t="1582247457047" class="icon" viewBox="0 0 1024 1024" version="1.1" xmlns="http://www.w3.org/2000/svg" p-id="3768" xmlns:xlink="http://www.w3.org/1999/xlink" width="16" height="16"><defs><style type="text/css"></style></defs><path d="M880 476.8l-160-144c-9.6-6.4-19.2-12.8-32-12.8-25.6 0-48 22.4-48 48 0 12.8 6.4 25.6 16 35.2l67.2 60.8-291.2 0c-25.6 0-48 22.4-48 48s22.4 48 48 48L723.2 560l-67.2 60.8c-9.6 9.6-16 22.4-16 35.2 0 25.6 22.4 48 48 48 12.8 0 22.4-3.2 32-12.8l160-144c9.6-9.6 16-22.4 16.00000001-35.2s-6.4-25.6-16.00000001-35.2zM127.99999999 512L128 880c0 28.8 22.4 48 48 47.99999999L416 928c25.6 0 48-22.4 48-48S441.59999999 832 416.00000001 832l-192.00000001 0 0-640 192.00000001 0c25.6 0 48-22.4 47.99999999-48S441.6 96 416 96l-240 1e-8c-25.6 0-48 22.4-48 47.99999999L127.99999999 512z" p-id="3769" fill="#333333"></path></svg>