<?xml version="1.0" encoding="UTF-8"?>
<svg width="14px" height="14px" viewBox="0 0 14 14" version="1.1" xmlns="http://www.w3.org/2000/svg" xmlns:xlink="http://www.w3.org/1999/xlink">
    <!-- Generator: Sketch 58 (84663) - https://sketch.com -->
    <title>系统设置</title>
    <desc>Created with Sketch.</desc>
    <g id="页面-1" stroke="none" stroke-width="1" fill="none" fill-rule="evenodd">
        <g id="系统设置">
            <rect id="矩形" x="0" y="0" width="14" height="14"></rect>
            <path d="M6.99395033,9.0130963 C5.70525897,9.0130963 4.65937256,7.98103704 4.65937256,6.70838519 C4.65937256,5.43573333 5.70525897,4.40367407 6.99395033,4.40367407 C8.28319478,4.40367407 9.32908121,5.43573333 9.32908121,6.70838519 C9.32908121,7.98103704 8.2831948,9.0130963 6.99395033,9.0130963 M12.1221676,7.00428643 C12.1381056,6.71801786 12.1305213,6.43092408 12.0994911,6.1458963 L13.6121824,5.10941236 C13.8227553,4.9598232 13.8868829,4.67565928 13.7609627,4.45013333 L12.3588886,2.0530568 C12.2224565,1.832018 11.9438168,1.74559245 11.7062466,1.85062717 L10.0397973,2.62605433 C9.73280985,2.40248926 9.40209098,2.21348054 9.05364417,2.06245926 L8.90099232,0.353975319 C8.87997503,0.105639512 8.65431577,0 8.39657751,0 L5.59242936,0 C5.33856269,0 5.11013799,0.101767896 5.08856762,0.353975319 L4.93591577,2.11334322 C4.559817,2.27595062 4.20860714,2.4562568 3.88615774,2.69906173 L2.11904663,1.86390125 C1.89006885,1.75715557 1.59527379,1.84011853 1.46640466,2.05969384 L0.0643305867,4.45345185 C-0.0617215825,4.67860319 0.00247205907,4.96258249 0.213110839,5.1116247 L1.87900714,6.25264199 C1.85622908,6.50254102 1.85234644,6.75380292 1.86739232,7.00428643 L0.376824408,8.02583704 C0.166701381,8.1757255 0.10265873,8.45951303 0.228044172,8.68511606 L1.63011825,11.0821926 C1.76659415,11.3035175 2.04559556,11.389982 2.2833133,11.2846222 L3.72133799,10.6153877 C4.08692811,10.9140543 4.49565899,11.1640494 4.93536269,11.3543111 L5.08801454,13.2679901 C5.10903183,13.516879 5.33469109,13.8271605 5.59187626,13.8271605 L8.39602441,13.8271605 C8.65044416,13.8271605 8.87886885,13.5201975 8.90043922,13.2679901 L9.05309108,11.4057481 C9.49334786,11.2149333 9.90097256,10.9400494 10.2665627,10.6413827 L11.7056935,11.2978963 C11.9341182,11.4040889 12.2294664,11.3084049 12.3583355,11.0888296 L13.7604096,8.68843458 C13.8864233,8.46227055 13.8220848,8.17751302 13.6110763,8.0274963 L12.1221676,7.00428643 L12.1221676,7.00428643 Z" id="形状" fill="#FFFFFF" fill-rule="nonzero"></path>
        </g>
    </g>
</svg>